<?xml version="1.0" encoding="UTF-8" standalone="no"?>
<!-- Uploaded to: SVG Repo, www.svgrepo.com, Generator: SVG Repo Mixer Tools -->
<svg width="800px" height="800px" viewBox="0 0 64 64" version="1.1" xmlns="http://www.w3.org/2000/svg" xmlns:xlink="http://www.w3.org/1999/xlink">
    
    <title>com-mac-old</title>
    <desc>Created with Sketch.</desc>
    <defs>

</defs>
    <g id="64px-Glyph" stroke="none" stroke-width="1" fill="none" fill-rule="evenodd">
        <g id="com-mac-old" fill="#000000">
            <polygon id="Fill-1" points="14 32 48 32 48 12 14 12">

</polygon>
            <path d="M50,33 C50,33.553 49.553,34 49,34 L13,34 C12.447,34 12,33.553 12,33 L12,11 C12,10.447 12.447,10 13,10 L49,10 C49.553,10 50,10.447 50,11 L50,33 L50,33 Z M31,52 C29.262,52 28,51.159 28,50 C28,48.841 29.262,48 31,48 C32.738,48 34,48.841 34,50 C34,51.159 32.738,52 31,52 L31,52 Z M51,6 L11,6 C9.346,6 8,7.346 8,9 L8,35 C8,36.654 9.346,38 11,38 L28,38 L28,40.281 C27.32,40.404 26.65,40.558 26,40.759 L26,40.756 C18.992,42.909 14,49.441 14,57 L14,57.452 C14,58.857 15.143,60 16.548,60 L45.452,60 C46.857,60 48,58.857 48,57.452 L48,57 C48,49.441 43.008,42.909 36,40.756 L36,40.759 C35.35,40.558 34.68,40.404 34,40.281 L34,38 L51,38 C52.654,38 54,36.654 54,35 L54,9 C54,7.346 52.654,6 51,6 L51,6 Z" id="Fill-2">

</path>
        </g>
    </g>
</svg>