<?xml version="1.0" encoding="UTF-8" standalone="no"?>
<!-- Uploaded to: SVG Repo, www.svgrepo.com, Generator: SVG Repo Mixer Tools -->
<svg width="800px" height="800px" viewBox="0 0 64 64" version="1.1" xmlns="http://www.w3.org/2000/svg" xmlns:xlink="http://www.w3.org/1999/xlink">
    
    <title>com-mouse-wireless-mac</title>
    <desc>Created with Sketch.</desc>
    <defs>

</defs>
    <g id="64px-Glyph" stroke="none" stroke-width="1" fill="none" fill-rule="evenodd">
        <g id="com-mouse-wireless-mac" fill="#000000">
            <path d="M29.6729,35.709 L25.6729,39.709 C25.4779,39.904 25.2219,40.002 24.9659,40.002 C24.7099,40.002 24.4539,39.904 24.2589,39.709 C23.8679,39.318 23.8679,38.686 24.2589,38.295 L28.2589,34.295 C28.6499,33.904 29.2819,33.904 29.6729,34.295 C30.0639,34.686 30.0639,35.318 29.6729,35.709 M34.7439,29.224 C30.4929,24.973 23.5469,25.007 19.2589,29.295 L7.2589,41.295 C2.9699,45.584 2.9379,52.53 7.1879,56.78 C9.2649,58.857 12.0399,60.002 15.0009,60.002 C17.7829,60.002 20.5789,58.802 22.6729,56.709 L34.6729,44.709 C38.9619,40.42 38.9929,33.473 34.7439,29.224" id="Fill-294">

</path>
            <path d="M43,32.001 L43,32.001 C42.447,32.001 42,31.553 42,31.001 C42.001,28.597 41.065,26.337 39.365,24.636 C37.665,22.937 35.406,22.001 33.005,22.001 L33.001,22.001 C32.449,22.001 32.001,21.554 32.001,21.001 C32.001,20.449 32.448,20.001 33.001,20.001 L33.005,20.001 C35.94,20.001 38.701,21.144 40.779,23.222 C42.857,25.301 44.001,28.063 44,31.001 C44,31.554 43.552,32.001 43,32.001" id="Fill-295">

</path>
            <path d="M51,32.001 C50.447,32.001 50,31.554 50,31.001 C50,26.459 48.231,22.19 45.022,18.98 C41.812,15.769 37.545,14.002 33.005,14.002 L33.001,14.002 C32.449,14.002 32.001,13.555 32.001,13.002 C32.001,12.45 32.448,12.002 33.001,12.002 L33.005,12.002 C38.079,12.002 42.849,13.978 46.435,17.565 C50.023,21.153 52,25.925 52,31.001 C52,31.554 51.553,32.001 51,32.001" id="Fill-296">

</path>
            <path d="M59,31.999 C58.447,31.999 58,31.552 58,30.999 C58,24.321 55.399,18.044 50.679,13.322 C45.958,8.602 39.68,6.001 33.001,6 C32.448,6 32.001,5.552 32.001,5 C32.001,4.447 32.449,4 33.001,4 C40.214,4.001 46.994,6.81 52.093,11.908 C57.191,17.007 60,23.787 60,30.999 C60,31.552 59.553,31.999 59,31.999" id="Fill-297">

</path>
        </g>
    </g>
</svg>